<?xml version="1.0" standalone="no"?>
<!DOCTYPE svg PUBLIC "-//W3C//DTD SVG 20010904//EN"
 "http://www.w3.org/TR/2001/REC-SVG-20010904/DTD/svg10.dtd">
<svg version="1.0" xmlns="http://www.w3.org/2000/svg"
 width="96.000000pt" height="96.000000pt" viewBox="0 0 96.000000 96.000000"
 preserveAspectRatio="xMidYMid meet">
<metadata>
Created by potrace 1.14, written by Peter Selinger 2001-2017
</metadata>
<g transform="translate(0.000000,96.000000) scale(0.100000,-0.100000)"
fill="#000000" stroke="none">
<path d="M539 649 c-7 -5 -30 -9 -50 -9 -21 0 -47 -8 -61 -20 -27 -21 -71 -28
-100 -15 -20 8 -20 8 -39 -79 -13 -58 -13 -59 14 -82 23 -19 40 -57 42 -89 0
-5 12 -11 27 -13 19 -2 31 3 40 17 17 28 30 27 26 -1 -2 -18 2 -24 24 -26 20
-2 31 4 44 23 15 23 19 24 26 11 14 -25 55 -19 75 10 14 22 15 31 5 56 -9 25
-8 35 3 52 20 28 19 55 -5 94 -11 18 -20 39 -20 47 0 20 -33 36 -51 24z"/>
</g>
</svg>
